<svg width="16" height="10" viewBox="0 0 16 10" fill="none" xmlns="http://www.w3.org/2000/svg">
<path d="M6.3216 8.04431C6.48752 8.26732 6.80424 8.30277 7.01485 8.1219L9.98042 5.57518C10.8071 4.86527 10.9026 3.60725 10.1926 2.78032L5.4964 6.93518L6.3216 8.04431Z" fill="#FFCC00"/>
<path d="M9.69105 8.05364C9.52474 8.27727 9.20718 8.31284 8.99602 8.13149L6.0196 5.57526C5.19295 4.86531 5.09745 3.60729 5.80744 2.78035L10.5153 6.94546L9.69105 8.05364Z" fill="#FF00FB"/>
<path d="M6.89329 8.2015C5.63824 8.90825 4.06119 8.47058 3.34945 7.218L2.06502e-05 1.32345C1.24741 0.593069 2.83759 1.02198 3.54857 2.28058L6.89329 8.2015Z" fill="#40FFEF"/>
<path d="M9.10674 8.2015C10.3618 8.90825 11.9388 8.47058 12.6506 7.218L16 1.32345C14.7526 0.593069 13.1624 1.02198 12.4515 2.28058L9.10674 8.2015Z" fill="#40FFEF"/>
</svg>
