<svg width="32" height="32" viewBox="0 0 32 32" fill="none" xmlns="http://www.w3.org/2000/svg">
<g clip-path="url(#clip0_10071_371)">
<path d="M32 16C32 17.4877 31.7968 18.9282 31.4176 20.2942C31.0595 21.5818 30.5444 22.804 29.8946 23.9386C29.7246 24.2354 29.5456 24.5261 29.3575 24.8108C28.7539 25.7241 28.0588 26.5721 27.2853 27.3416L27.2833 27.3436C26.9624 27.6635 26.6274 27.9683 26.2814 28.258C26.2311 28.3023 26.1798 28.3445 26.1285 28.3868C25.703 28.7348 25.2594 29.0617 24.7987 29.3655C22.3805 30.9619 19.5026 31.9175 16.4054 31.994C16.3812 31.996 16.3561 31.996 16.3309 31.996C16.3068 31.997 16.2817 31.998 16.2565 31.997C16.172 31.999 16.0865 32 16.001 32C15.9155 32 15.828 32 15.7425 31.998H15.7214C15.6972 31.998 15.6721 31.998 15.6479 31.996C15.5795 31.996 15.5111 31.993 15.4417 31.9899C12.2751 31.8813 9.34289 30.8533 6.90255 29.1623C6.89752 29.1593 6.89249 29.1553 6.88746 29.1523C6.76776 29.0688 6.64806 28.9843 6.53037 28.8968C6.02942 28.5286 5.55061 28.1313 5.09594 27.7078C5.0889 27.7007 5.08186 27.6947 5.07481 27.6877C5.05369 27.6686 5.03257 27.6484 5.01245 27.6283C4.1192 26.7854 3.32353 25.8398 2.64353 24.8118C2.59726 24.7414 2.55199 24.6719 2.50673 24.6005C1.83981 23.5564 1.29159 22.4298 0.879165 21.2398C0.308814 19.5981 0 17.8358 0 16C0 7.16409 7.16409 0 16 0C24.8359 0 32 7.16409 32 16Z" fill="#D9D6FE"/>
<path d="M15.9999 21.0667C19.266 21.0667 21.9137 18.4191 21.9137 15.153C21.9137 11.8869 19.266 9.23926 15.9999 9.23926C12.7339 9.23926 10.0862 11.8869 10.0862 15.153C10.0862 18.4191 12.7339 21.0667 15.9999 21.0667Z" fill="white"/>
<path d="M9.97253 15.153H22.0444C24.5441 15.8631 26.6163 17.0048 28.2046 18.4372C28.612 18.8054 28.3505 19.4824 27.8013 19.4824H4.19861C3.64938 19.4824 3.38784 18.8054 3.79524 18.4372C5.38256 17.0048 7.47184 15.8621 9.97253 15.153V15.153Z" fill="#5494CD"/>
<path d="M18.4997 22.3181H13.5003C11.4111 22.3181 9.35297 22.0274 7.67008 21.447C7.13091 21.2609 6.65612 21.0567 6.25879 20.8374H25.7412C25.3439 21.0567 24.8691 21.2609 24.33 21.447C22.6471 22.0274 20.589 22.3181 18.4997 22.3181Z" fill="#29609B"/>
<path d="M27.2983 20.8374L4.59191 20.8374C4.31428 20.8374 4.08896 20.6121 4.08896 20.3344V19.4824L27.8013 19.4824V20.3344C27.8013 20.6121 27.5759 20.8374 27.2983 20.8374Z" fill="#3E3A39"/>
<path d="M10.1273 14.475H21.8894C21.9749 14.475 22.0443 14.5444 22.0443 14.6299V15.152H9.97241V14.6299C9.97241 14.5444 10.0418 14.475 10.1273 14.475Z" fill="#3E3A39"/>
<path d="M16 20.8374V22.3181H13.5003C11.4111 22.3181 9.35297 22.0274 7.67008 21.447C7.13091 21.2609 6.65612 21.0567 6.25879 20.8374H16Z" fill="#215889"/>
<path d="M15.9998 19.4824V20.8374H4.5888C4.31318 20.8374 4.08887 20.6141 4.08887 20.3374V19.4824H15.9998Z" fill="#302D2D"/>
<path d="M3.79524 18.4372C5.38256 17.0048 7.47184 15.8621 9.97253 15.153H15.9999V19.4824H4.19861C3.64938 19.4824 3.38784 18.8054 3.79524 18.4372V18.4372Z" fill="#4486B7"/>
<path d="M10.0862 15.153C10.0862 11.8868 12.7337 9.23926 15.9999 9.23926V15.153H10.0862" fill="#EAEAEA"/>
<path d="M10.1273 14.475H15.9998V15.153H9.97241V14.6309C9.97241 14.5454 10.0418 14.476 10.1273 14.476V14.475Z" fill="#302D2D"/>
</g>
<defs>
<clipPath id="clip0_10071_371">
<rect width="32" height="32" fill="white"/>
</clipPath>
</defs>
</svg>
