<svg width="32" height="32" viewBox="0 0 32 32" fill="none" xmlns="http://www.w3.org/2000/svg">
<g clip-path="url(#clip0_10071_332)">
<path d="M32 16C32 21.5868 29.1372 26.5037 24.7987 29.3655C22.2749 31.0313 19.2511 32 16 32C15.8129 32 15.6268 31.997 15.4407 31.9899C12.2681 31.8813 9.32981 30.8492 6.88646 29.1523C2.72501 26.2633 0 21.45 0 16C0 7.16409 7.16409 0 16 0C24.8359 0 32 7.16409 32 16Z" fill="#E4FFF0"/>
<path d="M12.764 12.4683C12.3807 11.9452 5.54459 13.1251 5.15228 11.8989C4.86459 11.0017 4.71773 7.55038 4.94305 7.02026C4.26205 8.62268 3.73998 10.3207 3.33561 12.0398C3.27626 12.2942 3.21792 12.5729 3.17466 12.8606C3.08614 13.45 3.05999 14.0747 3.21792 14.6038C3.4704 15.4518 4.11016 15.5765 4.86057 15.6701C7.06854 15.9477 9.26142 16.3662 11.4271 16.9234C11.4 16.5342 11.409 16.1429 11.4513 15.7556C11.5831 14.5435 12.0418 13.3756 12.764 12.4673V12.4683Z" fill="#29609B"/>
<path d="M28.5317 12.763C28.4884 12.4753 28.4311 12.1967 28.3717 11.9422C27.9694 10.222 27.4493 8.52407 26.7703 6.92065C26.9947 7.45077 26.8448 10.902 26.5561 11.7993C26.1618 13.0245 19.3276 11.8375 18.9434 12.3606C19.6646 13.27 20.1223 14.4388 20.2531 15.6509C20.2943 16.0382 20.3033 16.4295 20.2762 16.8188C22.4429 16.2635 24.6368 15.8471 26.8448 15.5725C27.5952 15.4789 28.2349 15.3552 28.4884 14.5072C28.6464 13.9781 28.6212 13.3524 28.5337 12.764L28.5317 12.763Z" fill="#5494CD"/>
<path d="M25.4575 19.7973C25.9343 21.9489 26.0993 24.2001 25.9454 26.4363C25.6577 26.2713 25.37 26.1074 25.0813 25.9424C25.0652 27.0861 24.9707 28.2318 24.7987 29.3655C22.2748 31.0313 19.2511 32 16 32C15.8129 32 15.6268 31.997 15.4407 31.9899V10.6656C15.4407 10.6656 16.695 9.02701 19.3356 9.24227C18.9422 9.42937 18.1254 9.9615 17.9031 10.564C19.1062 10.2351 20.2519 10.5027 21.0879 11.0931C20.6473 11.1867 20.3002 11.5136 20.2741 11.7269C20.9209 11.8607 21.5556 12.0588 22.1692 12.3153C23.1288 12.7157 24.0382 13.2619 24.864 13.9358C24.4174 13.9529 23.9708 13.97 23.5242 13.9871C24.1921 14.4348 24.7604 15.0625 25.1749 15.8068C25.2201 15.8863 25.2624 15.9678 25.3036 16.0503C25.0743 15.9406 24.8097 15.9225 24.5653 16C25.6386 17.2101 26.383 18.7904 26.6827 20.4914C26.2743 20.26 25.8659 20.0286 25.4575 19.7973V19.7973Z" fill="#08BED0"/>
<path d="M15.4408 10.6656V31.9899C12.2682 31.8813 9.32991 30.8492 6.88655 29.1522C6.51537 27.7681 6.30514 26.3226 6.2649 24.864C6.26188 24.7544 6.13514 24.7192 6.08484 24.8148C6.01644 24.9455 5.93396 25.0682 5.8394 25.1769C5.77603 25.2503 5.66739 25.2061 5.6684 25.1055C5.68147 23.488 5.94703 21.8644 6.44798 20.3304C6.48218 20.2258 6.37958 20.1383 6.30011 20.2047C5.84141 20.5789 5.41591 21.0064 5.03166 21.4771C4.96124 21.5637 4.83953 21.4902 4.86568 21.3776C5.25799 19.6434 5.93999 17.9826 6.86543 16.513C6.92377 16.4204 6.83928 16.3038 6.74774 16.35L5.93295 16.7675C5.83739 16.8168 5.75289 16.69 5.81828 16.5975C5.98928 16.353 6.16632 16.1136 6.3504 15.8803C7.26075 14.7205 8.32098 13.7095 9.48381 12.8937C9.33092 13.0094 8.23447 12.6443 7.91661 12.4773C7.88442 12.4602 7.86028 12.4451 7.84619 12.433C8.93861 11.9341 10.5682 11.3245 11.732 11.2853C11.4514 10.4614 10.7311 9.8086 9.37115 9.65469C12.7641 8.78659 14.7166 10.3468 15.4408 10.6656V10.6656Z" fill="#0691AE"/>
<path d="M15.7889 26.1195C19.2883 26.1195 22.1251 23.1665 22.1251 19.5237C22.1251 15.881 19.2883 12.928 15.7889 12.928C12.2895 12.928 9.45264 15.881 9.45264 19.5237C9.45264 23.1665 12.2895 26.1195 15.7889 26.1195Z" fill="white"/>
<path d="M15.4408 12.938C12.1052 13.1261 9.45563 16.001 9.45361 19.5207C9.4516 23.0434 12.1022 25.9213 15.4408 26.1094V12.938Z" fill="#E0E0E0"/>
<path d="M15.5295 15.7113C14.6563 15.7747 13.8053 16.1589 13.1696 16.857C11.8488 18.3035 11.9514 20.5477 13.3989 21.8675C13.9844 22.4016 14.6996 22.7024 15.4309 22.7768C16.1048 20.3787 16.2336 17.9142 15.5295 15.7113V15.7113Z" fill="#02A486"/>
<path d="M18.4094 21.6381C19.7302 20.1916 19.6276 17.9474 18.1801 16.6277C17.4307 15.9436 16.468 15.6429 15.5295 15.7113C16.2326 17.9132 16.1049 20.3787 15.4309 22.7768C16.5092 22.8854 17.6228 22.5012 18.4094 21.6391V21.6381Z" fill="#04BF8A"/>
<path d="M15.5756 21.3504C16.2184 21.4148 16.8823 21.1864 17.3511 20.6724C18.1377 19.8104 18.0773 18.4735 17.2143 17.6859C16.7676 17.2785 16.1933 17.0984 15.635 17.1397C15.1149 17.1779 14.6079 17.4062 14.2287 17.8227C13.4421 18.6847 13.5024 20.0216 14.3655 20.8092C14.7146 21.1271 15.1411 21.3072 15.5766 21.3504H15.5756Z" fill="#263238"/>
</g>
<defs>
<clipPath id="clip0_10071_332">
<rect width="32" height="32" fill="white"/>
</clipPath>
</defs>
</svg>
