<svg width="32" height="32" viewBox="0 0 32 32" fill="none" xmlns="http://www.w3.org/2000/svg">
<g clip-path="url(#clip0_10071_416)">
<path d="M32 16C32 22.0948 28.5929 27.3929 23.5793 30.0938C21.3239 31.3099 18.7427 32 16.0005 32C13.2583 32 10.6761 31.3099 8.41973 30.0938C3.40712 27.3919 0 22.0938 0 16C0 7.16409 7.16331 0 16.0005 0C24.8377 0 32 7.16409 32 16Z" fill="#FEB173"/>
<path d="M25.9633 6.72244C25.2541 6.01327 24.1054 6.01327 23.3962 6.72244C22.8137 7.30486 22.7111 8.18604 23.0863 8.87408L21.2404 10.7199C19.977 9.56313 18.3302 8.81976 16.5125 8.70106V6.4438C17.265 6.2225 17.8152 5.52742 17.8152 4.70358C17.8152 3.70169 17.0024 2.88892 16.0005 2.88892V24.2031C20.2868 24.2031 23.7613 20.7287 23.7613 16.4425C23.7613 14.5454 23.0803 12.8092 21.9496 11.4603L23.8116 9.59833C24.5007 9.97454 25.3809 9.87194 25.9633 9.28851C26.6725 8.57935 26.6725 7.4306 25.9633 6.72143V6.72244Z" fill="#08BED0"/>
<path d="M14.1848 4.70358C14.1848 5.52842 14.735 6.2225 15.4875 6.4438V8.70106C13.6697 8.81976 12.022 9.56313 10.7595 10.7199L8.91364 8.87408C9.28987 8.18503 9.18726 7.30486 8.60381 6.72244C7.89463 6.01327 6.74584 6.01327 6.03665 6.72244C5.32746 7.4316 5.32746 8.58035 6.03665 9.28952C6.61909 9.87194 7.5003 9.97454 8.18836 9.59934L10.0504 11.4613C8.91968 12.8092 8.23866 14.5464 8.23866 16.4435C8.23866 20.7297 11.7132 24.2041 15.9995 24.2041V2.88892C14.9966 2.88892 14.1848 3.70169 14.1848 4.70358V4.70358Z" fill="#0691AE"/>
<path d="M23.5944 30.0938C21.3391 31.3099 18.7578 32 16.0156 32V27.2008H18.0637V28.3294C19.4952 28.6453 20.8944 29.0245 22.2374 29.5204C22.5301 29.614 22.852 29.7367 23.193 29.8946C23.197 29.8966 23.2021 29.8987 23.2071 29.9007C23.3338 29.961 23.4626 30.0244 23.5944 30.0938V30.0938Z" fill="#08BED0"/>
<path d="M16.0156 13.966V18.9181C18.9902 18.9845 20.9196 16.4355 20.9196 16.4355C20.9196 16.4355 18.9862 13.8956 16.0156 13.966V13.966Z" fill="white"/>
<path d="M11.1127 16.4497C12.9224 18.2543 14.5892 18.887 16.0156 18.9182V13.9661C14.5872 14.0003 12.9203 14.636 11.1127 16.4497Z" fill="#E0E0E0"/>
<path d="M16.0156 27.2008V32C13.2734 32 10.6911 31.3099 8.43481 30.0938C8.56659 30.0244 8.69636 29.961 8.82311 29.9017C8.82814 29.8987 8.83317 29.8966 8.83719 29.8946C9.17821 29.7367 9.50011 29.614 9.79284 29.5204C11.1358 29.0245 12.535 28.6453 13.9665 28.3294V27.2008H16.0156V27.2008Z" fill="#0691AE"/>
<path d="M17.2881 15.1702C16.9371 14.8191 16.4763 14.6431 16.0156 14.6431V18.2422C16.4763 18.2422 16.9371 18.0662 17.2881 17.7151C17.9913 17.012 17.9913 15.8733 17.2881 15.1702V15.1702Z" fill="#08BED0"/>
<path d="M14.7431 15.1702C14.0399 15.8733 14.0399 17.012 14.7431 17.7151C15.0941 18.0662 15.5549 18.2422 16.0156 18.2422V14.6431C15.5549 14.6431 15.0941 14.8191 14.7431 15.1702V15.1702Z" fill="#0691AE"/>
<path d="M16.7278 3.99041C16.5266 3.78923 16.2631 3.69165 15.9995 3.69568V5.70951C16.2621 5.71353 16.5266 5.61596 16.7278 5.41478C17.1211 5.02147 17.1211 4.38271 16.7278 3.9894V3.99041Z" fill="white"/>
<path d="M15.3024 3.99038C14.9091 4.38369 14.9091 5.02244 15.3024 5.41576C15.4956 5.60889 15.7471 5.70646 15.9996 5.71049V3.69666C15.7471 3.70068 15.4956 3.79825 15.3024 3.99139V3.99038Z" fill="#E0E0E0"/>
<path d="M17.0235 16.1649C17.4269 16.1649 17.7538 15.838 17.7538 15.4346C17.7538 15.0313 17.4269 14.7043 17.0235 14.7043C16.6202 14.7043 16.2932 15.0313 16.2932 15.4346C16.2932 15.838 16.6202 16.1649 17.0235 16.1649Z" fill="white"/>
<path d="M15.9995 5.31017C16.3345 5.31017 16.6061 5.03861 16.6061 4.70361C16.6061 4.36861 16.3345 4.09705 15.9995 4.09705C15.6645 4.09705 15.3929 4.36861 15.3929 4.70361C15.3929 5.03861 15.6645 5.31017 15.9995 5.31017Z" fill="#024C74"/>
<path d="M24.6798 9.01291C25.2365 9.01291 25.6878 8.56165 25.6878 8.00499C25.6878 7.44833 25.2365 6.99707 24.6798 6.99707C24.1231 6.99707 23.6719 7.44833 23.6719 8.00499C23.6719 8.56165 24.1231 9.01291 24.6798 9.01291Z" fill="white"/>
<path d="M24.6637 8.61156C24.9987 8.61156 25.2703 8.34 25.2703 8.005C25.2703 7.67001 24.9987 7.39844 24.6637 7.39844C24.3287 7.39844 24.0571 7.67001 24.0571 8.005C24.0571 8.34 24.3287 8.61156 24.6637 8.61156Z" fill="#024C74"/>
<path d="M7.32021 9.01291C7.87689 9.01291 8.32816 8.56165 8.32816 8.00499C8.32816 7.44833 7.87689 6.99707 7.32021 6.99707C6.76353 6.99707 6.31226 7.44833 6.31226 8.00499C6.31226 8.56165 6.76353 9.01291 7.32021 9.01291Z" fill="#E0E0E0"/>
<path d="M7.30519 8.61156C7.6402 8.61156 7.91177 8.34 7.91177 8.005C7.91177 7.67001 7.6402 7.39844 7.30519 7.39844C6.97019 7.39844 6.69861 7.67001 6.69861 8.005C6.69861 8.34 6.97019 8.61156 7.30519 8.61156Z" fill="#024C74"/>
<path d="M21.9254 24.5281H10.1298C9.90089 24.5281 9.71533 24.7136 9.71533 24.9425V24.9435C9.71533 25.1724 9.90089 25.358 10.1298 25.358H21.9254C22.1543 25.358 22.3399 25.1724 22.3399 24.9435V24.9425C22.3399 24.7136 22.1543 24.5281 21.9254 24.5281Z" fill="#024C74"/>
<path d="M18.7568 25.7161H13.2986C13.0697 25.7161 12.8842 25.9016 12.8842 26.1305V26.1315C12.8842 26.3604 13.0697 26.5459 13.2986 26.5459H18.7568C18.9857 26.5459 19.1713 26.3604 19.1713 26.1315V26.1305C19.1713 25.9016 18.9857 25.7161 18.7568 25.7161Z" fill="#024C74"/>
<path d="M16.8205 15.6228C16.5941 15.3965 16.2974 15.2828 16.0006 15.2828V17.6025C16.2974 17.6025 16.5941 17.4888 16.8205 17.2625C17.2731 16.8098 17.2731 16.0755 16.8205 15.6228Z" fill="#024C74"/>
<path d="M15.1797 15.6228C14.727 16.0755 14.727 16.8098 15.1797 17.2625C15.4061 17.4888 15.7028 17.6025 15.9996 17.6025V15.2828C15.7028 15.2828 15.4061 15.3965 15.1797 15.6228Z" fill="#024C74"/>
</g>
<defs>
<clipPath id="clip0_10071_416">
<rect width="32" height="32" fill="white"/>
</clipPath>
</defs>
</svg>
