<svg width="32" height="32" viewBox="0 0 32 32" fill="none" xmlns="http://www.w3.org/2000/svg">
<g clip-path="url(#clip0_10071_291)">
<path d="M32 16C32 22.0948 28.5929 27.3929 23.5793 30.0938C21.3239 31.3099 18.7427 32 16.0005 32C13.2583 32 10.6761 31.3099 8.41973 30.0938C3.40712 27.3919 0 22.0938 0 16C0 7.16409 7.16331 0 16.0005 0C24.8377 0 32 7.16409 32 16Z" fill="#FEB173"/>
<path d="M23.5792 30.0938C21.3239 31.31 18.7427 32 16.0005 32V24.5583H18.0486V28.3294C19.48 28.6453 20.8793 29.0245 22.2222 29.5204C22.515 29.614 22.8369 29.7367 23.1779 29.8946C23.1819 29.8967 23.1869 29.8987 23.192 29.9007C23.3187 29.961 23.4475 30.0244 23.5792 30.0938Z" fill="#08BED0"/>
<path d="M16.0005 24.5583V32C13.2583 32 10.676 31.31 8.41968 30.0938C8.55146 30.0244 8.68122 29.961 8.80797 29.9017C8.813 29.8987 8.81803 29.8967 8.82205 29.8946C9.16307 29.7367 9.48497 29.614 9.7777 29.5204C11.1206 29.0245 12.5199 28.6453 13.9514 28.3294V24.5583H16.0005Z" fill="#0691AE"/>
<path d="M15.9995 4.6181C11.0311 4.78307 7.05566 8.74233 7.05566 13.6039C7.05566 18.4655 10.8803 26.9744 15.9995 26.9744V4.6181Z" fill="#0691AE"/>
<path d="M15.9995 4.6181C20.9679 4.78307 24.9433 8.74233 24.9433 13.6039C24.9433 18.4655 21.1187 26.9744 15.9995 26.9744V4.6181Z" fill="#08BED0"/>
<path d="M16.7631 18.7512C22.9476 20.6362 23.86 14.97 23.86 14.97C23.86 14.97 18.6482 12.5658 16.7631 18.7512Z" fill="#024C74"/>
<path d="M8.14014 14.9699C8.14014 14.9699 9.05152 20.6362 15.2371 18.7512C13.3519 12.5668 8.14014 14.9699 8.14014 14.9699Z" fill="#024C74"/>
<path d="M15.6897 21.1392C15.6897 21.3434 15.5237 21.5094 15.3195 21.5094C15.1153 21.5094 14.9493 21.3434 14.9493 21.1392C14.9493 20.935 15.1153 20.769 15.3195 20.769C15.5237 20.769 15.6897 20.935 15.6897 21.1392Z" fill="#024C74"/>
<path d="M16.6806 21.5094C16.8851 21.5094 17.0508 21.3437 17.0508 21.1392C17.0508 20.9348 16.8851 20.769 16.6806 20.769C16.4762 20.769 16.3104 20.9348 16.3104 21.1392C16.3104 21.3437 16.4762 21.5094 16.6806 21.5094Z" fill="#024C74"/>
</g>
<defs>
<clipPath id="clip0_10071_291">
<rect width="32" height="32" fill="white"/>
</clipPath>
</defs>
</svg>
