<svg width="32" height="32" viewBox="0 0 32 32" fill="none" xmlns="http://www.w3.org/2000/svg">
<g clip-path="url(#clip0_10071_305)">
<path d="M32 16C32 19.0238 31.161 21.8514 29.7024 24.2635C28.2237 26.7129 26.1052 28.7328 23.5793 30.0938C21.3239 31.3099 18.7427 32 16.0005 32C13.2583 32 10.6761 31.3099 8.41973 30.0938C5.89482 28.7328 3.7763 26.7129 2.29656 24.2635C0.838955 21.8514 0 19.0238 0 16C0 7.16409 7.16331 0 16.0005 0C24.8377 0 32 7.16409 32 16Z" fill="#C6E4F6"/>
<path d="M14.2391 12.2128C14.2391 10.1156 12.539 8.41547 10.4417 8.41547C8.34445 8.41547 6.64429 10.1156 6.64429 12.2128V23.1772C6.64429 25.2744 8.34445 26.9745 10.4417 26.9745C12.539 26.9745 14.2391 25.2744 14.2391 23.1772V12.2128Z" fill="#EC4A0A"/>
<path d="M25.3549 12.2128C25.3549 10.1156 23.6547 8.41547 21.5574 8.41547C19.4602 8.41547 17.76 10.1156 17.76 12.2128V23.1772C17.76 25.2744 19.4602 26.9745 21.5574 26.9745C23.6547 26.9745 25.3549 25.2744 25.3549 23.1772V12.2128Z" fill="#FB6514"/>
<path d="M10.4417 14.5887C11.7817 14.5887 12.868 13.5024 12.868 12.1625C12.868 10.8225 11.7817 9.73621 10.4417 9.73621C9.10169 9.73621 8.01538 10.8225 8.01538 12.1625C8.01538 13.5024 9.10169 14.5887 10.4417 14.5887Z" fill="white"/>
<path d="M21.5574 14.5887C22.8975 14.5887 23.9838 13.5024 23.9838 12.1625C23.9838 10.8225 22.8975 9.73621 21.5574 9.73621C20.2174 9.73621 19.1311 10.8225 19.1311 12.1625C19.1311 13.5024 20.2174 14.5887 21.5574 14.5887Z" fill="white"/>
<path d="M16.0005 19.6404V32C18.7427 32 21.3239 31.3099 23.5792 30.0938C26.1052 28.7328 28.2237 26.7129 29.7024 24.2635C25.9 21.3635 21.1519 19.6404 16.0005 19.6404V19.6404Z" fill="#FB6514"/>
<path d="M2.29666 24.2635C3.7764 26.7129 5.89491 28.7328 8.41983 30.0938C10.6762 31.3099 13.2584 32 15.9996 32V19.6404C10.8482 19.6404 6.09811 21.3635 2.29565 24.2635H2.29666Z" fill="#EC4A0A"/>
<path d="M10.4416 13.608C11.24 13.608 11.8872 12.9608 11.8872 12.1625C11.8872 11.3641 11.24 10.717 10.4416 10.717C9.64328 10.717 8.99609 11.3641 8.99609 12.1625C8.99609 12.9608 9.64328 13.608 10.4416 13.608Z" fill="#263238"/>
<path d="M21.4055 13.608C22.2038 13.608 22.851 12.9608 22.851 12.1625C22.851 11.3641 22.2038 10.717 21.4055 10.717C20.6071 10.717 19.96 11.3641 19.96 12.1625C19.96 12.9608 20.6071 13.608 21.4055 13.608Z" fill="#263238"/>
</g>
<defs>
<clipPath id="clip0_10071_305">
<rect width="32" height="32" fill="white"/>
</clipPath>
</defs>
</svg>
