<svg width="32" height="32" viewBox="0 0 32 32" fill="none" xmlns="http://www.w3.org/2000/svg">
<g clip-path="url(#clip0_10071_317)">
<path d="M32 16C32 17.4877 31.7968 18.9282 31.4176 20.2942C31.0595 21.5818 30.5444 22.804 29.8946 23.9386C29.7246 24.2354 29.5456 24.5261 29.3575 24.8108C28.7539 25.7241 28.0588 26.5721 27.2853 27.3416L27.2833 27.3436C26.9151 27.7098 26.5299 28.0578 26.1285 28.3868C25.703 28.7348 25.2594 29.0617 24.7987 29.3655C22.3805 30.9619 19.5026 31.9175 16.4054 31.994C16.3812 31.996 16.3561 31.996 16.3309 31.996H16.3299C16.3058 31.997 16.2806 31.998 16.2555 31.997C16.171 31.999 16.0855 32 16 32C15.9145 32 15.827 31.999 15.7415 31.998H15.7204C15.6268 31.996 15.5343 31.994 15.4407 31.9899C12.2741 31.8813 9.34188 30.8533 6.90155 29.1623C6.89652 29.1593 6.89149 29.1553 6.88646 29.1523C6.76675 29.0688 6.64705 28.9843 6.52936 28.8968C6.02842 28.5286 5.5496 28.1313 5.09493 27.7078C5.08789 27.7007 5.08085 27.6947 5.07381 27.6877C4.15541 26.8296 3.33861 25.864 2.64252 24.8118C2.59625 24.7414 2.55099 24.6719 2.50572 24.6005C1.8388 23.5564 1.29058 22.4298 0.878159 21.2398C0.308814 19.5981 0 17.8358 0 16C0 7.16409 7.16409 0 16 0C24.8359 0 32 7.16409 32 16Z" fill="#F4F3FF"/>
<path d="M26.3005 8.76756C26.1376 8.52715 25.9646 8.30082 25.8006 8.09762C24.6931 6.72154 23.488 5.41687 22.1813 4.26611C22.6129 4.64635 23.9739 7.822 24.1026 8.75549C24.2787 10.03 17.6044 11.9221 17.4847 12.5598C18.5289 13.0668 19.4483 13.9218 20.0911 14.9579C20.2963 15.2889 20.4743 15.6379 20.6181 16.0011C22.3302 14.5616 24.1268 13.2358 25.9978 12.0307C26.6335 11.6213 27.1566 11.232 27.0177 10.3589C26.9302 9.81371 26.6375 9.26146 26.3025 8.76857L26.3005 8.76756Z" fill="#7A5AF8"/>
<path d="M6.50718 8.76756C6.67014 8.52715 6.84316 8.30082 7.00712 8.09762C8.11463 6.72154 9.31971 5.41687 10.6264 4.26611C10.1948 4.64635 8.83385 7.822 8.7051 8.75549C8.52906 10.03 15.2033 11.9221 15.323 12.5598C14.2788 13.0668 13.3594 13.9218 12.7167 14.9579C12.5115 15.2889 12.3334 15.6379 12.1896 16.0011C10.4775 14.5616 8.68095 13.2358 6.80996 12.0307C6.17423 11.6213 5.65115 11.232 5.78997 10.3589C5.87748 9.81371 6.1702 9.26146 6.50517 8.76857L6.50718 8.76756Z" fill="#6938EF"/>
<path d="M31.4176 20.2942C31.0595 21.5818 30.5445 22.8039 29.8946 23.9386C29.7246 24.2354 29.5456 24.5261 29.3575 24.8107C28.0689 25.1759 27.0097 26.6224 26.1285 28.3867C25.703 28.7348 25.2594 29.0617 24.7987 29.3655C22.3805 30.9619 19.5026 31.9175 16.4054 31.9939L17.3741 12.3727C17.6326 12.2087 17.9092 12.0628 18.1999 11.9321C20.3053 10.9865 23.1641 10.892 25.3499 11.4171C24.7917 11.5579 23.6027 12.0236 23.1893 12.7026C28.1041 12.775 30.7356 16.176 31.7646 18.2774C31.1681 18.2009 30.5716 18.1255 29.9761 18.049C30.3513 18.3709 30.8905 19.075 31.4176 20.2942V20.2942Z" fill="#9B8AFB"/>
<path d="M15.2868 12.3727L16.2555 31.997C16.171 31.999 16.0855 32 16 32C15.9145 32 15.827 31.999 15.7415 31.998H15.7204C15.6268 31.996 15.5343 31.9939 15.4407 31.9899C12.2741 31.8813 9.3419 30.8532 6.90156 29.1623C5.87654 26.896 4.593 24.9455 2.95538 24.7393C2.85479 24.7544 2.75017 24.7796 2.64254 24.8117C2.59627 24.7413 2.551 24.6719 2.50574 24.6005C1.83882 23.5564 1.2906 22.4297 0.878174 21.2398C1.50787 19.4281 2.22308 18.4463 2.68579 18.049C2.08929 18.1255 1.49379 18.2009 0.897286 18.2774C1.92633 16.176 4.55679 12.775 9.47267 12.7026C9.05924 12.0236 7.87025 11.5579 7.31097 11.4171C9.49781 10.892 12.3566 10.9865 14.461 11.9321C14.7517 12.0628 15.0283 12.2087 15.2868 12.3727V12.3727Z" fill="#5925DC"/>
<path d="M16.33 12.4884V31.996C16.3058 31.997 16.2807 31.998 16.2555 31.997C16.171 31.999 16.0855 32 16 32C15.9145 32 15.827 31.999 15.7415 31.998H15.7204C15.6268 31.996 15.5343 31.994 15.4407 31.9899C12.2741 31.8813 9.3419 30.8533 6.90156 29.1623C6.89653 29.1593 6.8915 29.1553 6.88647 29.1523C6.76677 29.0688 6.64707 28.9843 6.52938 28.8968C6.02843 28.5286 5.54962 28.1313 5.09495 27.7078C5.21767 27.5428 5.33033 27.401 5.42589 27.2843L5.07382 27.6877C4.15543 26.8296 3.33863 25.8639 2.64254 24.8118C2.59627 24.7414 2.551 24.6719 2.50574 24.6005C3.88283 20.8505 6.28896 18.9071 6.3634 18.8467L3.53881 20.3204C5.89062 15.495 10.2543 14.2326 10.2543 14.2326L7.25363 14.1823C10.1667 12.4944 13.8172 12.5447 13.8172 12.5447L11.6917 11.6696C12.8405 11.6917 13.7568 11.8003 14.461 11.9321C15.653 12.1544 16.2414 12.4431 16.33 12.4884V12.4884Z" fill="#6938EF"/>
<path d="M29.8946 23.9386C29.7246 24.2354 29.5456 24.5261 29.3575 24.8108C28.7539 25.7241 28.0588 26.5721 27.2853 27.3416L27.235 27.2843C27.2511 27.3034 27.2662 27.3225 27.2833 27.3436C26.9151 27.7098 26.5299 28.0578 26.1285 28.3868C25.703 28.7348 25.2594 29.0617 24.7987 29.3655C22.3805 30.9619 19.5026 31.9175 16.4054 31.994C16.3812 31.996 16.3561 31.996 16.3309 31.996V12.4884C16.4195 12.4431 17.0079 12.1544 18.1999 11.9321C18.904 11.8003 19.8204 11.6917 20.9692 11.6696L18.8437 12.5447C18.8437 12.5447 22.4951 12.4944 25.4083 14.1823L22.4076 14.2326C22.4076 14.2326 26.7713 15.495 29.1221 20.3204L26.2985 18.8467C26.3639 18.9 28.4944 20.6181 29.8946 23.9386V23.9386Z" fill="#7A5AF8"/>
<path d="M16.3299 27.5498C19.6054 27.5498 22.2607 24.8945 22.2607 21.619C22.2607 18.3434 19.6054 15.6881 16.3299 15.6881C13.0544 15.6881 10.399 18.3434 10.399 21.619C10.399 24.8945 13.0544 27.5498 16.3299 27.5498Z" fill="white"/>
<path d="M16.3299 25.2865C18.3554 25.2865 19.9974 23.6445 19.9974 21.619C19.9974 19.5934 18.3554 17.9514 16.3299 17.9514C14.3044 17.9514 12.6624 19.5934 12.6624 21.619C12.6624 23.6445 14.3044 25.2865 16.3299 25.2865Z" fill="#FEB173"/>
<path d="M16.3299 23.6519C17.4527 23.6519 18.3629 22.7418 18.3629 21.619C18.3629 20.4962 17.4527 19.5861 16.3299 19.5861C15.2072 19.5861 14.297 20.4962 14.297 21.619C14.297 22.7418 15.2072 23.6519 16.3299 23.6519Z" fill="#263238"/>
<path d="M20.5619 17.1779C17.9968 14.8371 14.0204 15.0192 11.6807 17.5833C10.7341 18.6203 10.2 19.8888 10.0692 21.1854C14.6914 19.7419 19.0067 20.3535 22.5918 21.3615C22.4781 19.8144 21.7981 18.3055 20.5619 17.1779V17.1779Z" fill="#5925DC"/>
</g>
<defs>
<clipPath id="clip0_10071_317">
<rect width="32" height="32" fill="white"/>
</clipPath>
</defs>
</svg>
